<?xml version="1.0" encoding="utf-8"?>
<!-- Generator: Adobe Illustrator 23.0.3, SVG Export Plug-In . SVG Version: 6.00 Build 0)  -->
<svg version="1.1" id="Layer_1" xmlns="http://www.w3.org/2000/svg" xmlns:xlink="http://www.w3.org/1999/xlink" x="0px" y="0px"
	 viewBox="0 0 17 17" style="enable-background:new 0 0 17 17;" xml:space="preserve">
<style type="text/css">
	.st0{fill:none;stroke:#2097FC;stroke-miterlimit:10;}
	.st1{fill:#2097FC;}
</style>
<circle class="st0" cx="8.46" cy="8.5" r="7.76"/>
<g>
	<path class="st1" d="M12.89,4.28l-1.44,8.23c-0.05,0.24-0.29,0.44-0.53,0.44H9.44c-0.22,0-0.35-0.1-0.44-0.32L7.22,8.61
		c-0.04-0.08-0.07-0.1-0.11-0.1c-0.04,0-0.06,0.02-0.07,0.11l-0.72,4.09c-0.02,0.13-0.16,0.24-0.29,0.24h-1.8
		c-0.12,0-0.2-0.08-0.2-0.2c0-0.01,0-0.02,0-0.04l1.44-8.23c0.05-0.24,0.29-0.44,0.53-0.44h1.46c0.23,0,0.32,0.14,0.42,0.35
		L9.7,8.53c0.04,0.08,0.05,0.11,0.08,0.11c0.04,0,0.07-0.01,0.08-0.11l0.74-4.25c0.02-0.13,0.16-0.24,0.29-0.24h1.8
		c0.12,0,0.19,0.08,0.19,0.19C12.89,4.26,12.89,4.27,12.89,4.28z"/>
</g>
</svg>
