<svg xmlns="http://www.w3.org/2000/svg" viewBox="0 0 200 60" xmlns:v="https://vecta.io/nano"><path d="M82.79 46.63l-.14.8c-.36 2-1.26 2.86-2.85 2.86a8.07 8.07 0 0 1-1.63-.19l-.4 2.23a.27.27 0 0 1-.24.23h-.12a.17.17 0 0 1-.17-.19h0l1.44-8.15c0-.15.06-.2.22-.23a9.63 9.63 0 0 1 2.1-.27 1.8 1.8 0 0 1 1.92 2.05 4.49 4.49 0 0 1-.13.86zm-1.91-2.44a9.65 9.65 0 0 0-1.71.18l-.92 5.27a8.75 8.75 0 0 0 1.63.18c1.27 0 2-.85 2.24-2.39l.15-.8a5.59 5.59 0 0 0 .09-.94c0-1.01-.45-1.5-1.48-1.5zm8.42 2.4l-.15.84c-.31 1.83-1.25 2.86-3 2.86a1.88 1.88 0 0 1-2-2.1 5.24 5.24 0 0 1 .07-.76l.15-.84c.32-1.88 1.29-2.87 3-2.87a1.85 1.85 0 0 1 2 2.07 4.56 4.56 0 0 1-.07.8zm-2-2.4c-1.36 0-2.12 1-2.38 2.4l-.14.84a5 5 0 0 0-.08.82c0 1 .45 1.57 1.6 1.57 1.38 0 2.12-1 2.37-2.39l.14-.84a5.15 5.15 0 0 0 .08-.83c-.04-1.01-.49-1.57-1.63-1.57zm11.76-.12l-2.29 5.55c-.19.46-.38.67-.72.67s-.46-.26-.51-.71l-.47-4.53c0-.12 0-.14-.06-.14s-.06 0-.11.14l-2.07 4.53c-.21.45-.35.71-.76.71s-.45-.21-.48-.67l-.35-5.55h0a.28.28 0 0 1 .28-.28h0a.16.16 0 0 1 .15.17l.33 5.55c0 .3.06.32.11.32s.08 0 .2-.31l2.11-4.63a.66.66 0 0 1 .59-.45.43.43 0 0 1 .44.45l.55 4.62c0 .27.07.31.12.31s.1 0 .22-.32l2.24-5.5a.29.29 0 0 1 .23-.17h.1a.17.17 0 0 1 .18.18.23.23 0 0 1-.03.06zm5.94 2.5l-.06.33a.32.32 0 0 1-.29.23h-4v.25a5.91 5.91 0 0 0-.07.78c0 1.29.68 1.65 1.8 1.65a10.06 10.06 0 0 0 1.82-.19h.11c.08 0 .14 0 .14.09a.28.28 0 0 1 0 .09v.08c-.05.17-.1.18-.28.22a10.12 10.12 0 0 1-1.83.2c-1.32 0-2.25-.61-2.25-2.11a4.51 4.51 0 0 1 .06-.8l.14-.79c.31-1.89 1.33-2.87 2.92-2.87a1.82 1.82 0 0 1 2 2 5.78 5.78 0 0 1-.21.84zm-2-2.38c-1.33 0-2 .92-2.32 2.4v.06h3.76v-.08a5.37 5.37 0 0 0 .08-.84c-.02-.99-.45-1.54-1.52-1.54zm6.59-.29v.1c0 .15-.12.18-.31.18a3.32 3.32 0 0 0-1.73.56L106.6 50a.29.29 0 0 1-.26.23h-.07a.18.18 0 0 1-.19-.19h0l1-6a.29.29 0 0 1 .27-.24h.09c.11 0 .18 0 .18.17v.07.25a3.09 3.09 0 0 1 1.7-.55c.18 0 .28 0 .28.14zm5.68 2.67l-.06.33a.32.32 0 0 1-.29.23h-4v.25a5.91 5.91 0 0 0-.07.78c0 1.29.68 1.65 1.8 1.65a10.15 10.15 0 0 0 1.82-.19h.11c.08 0 .14 0 .14.09a.28.28 0 0 1 0 .09v.08c0 .17-.1.18-.28.22a10 10 0 0 1-1.83.2c-1.32 0-2.25-.61-2.25-2.11a4.51 4.51 0 0 1 .06-.8l.13-.79c.32-1.89 1.34-2.87 2.93-2.87a1.82 1.82 0 0 1 2 2 5.78 5.78 0 0 1-.21.84zm-2-2.38c-1.33 0-2 .92-2.32 2.4v.06h3.76v-.08a5.37 5.37 0 0 0 .08-.84c.03-.99-.4-1.54-1.49-1.54zm8.99-2.65l-1.46 8.3c0 .14-.07.19-.23.22a11.34 11.34 0 0 1-2 .23c-1.33 0-1.92-.85-1.92-2.1a6 6 0 0 1 .07-.81l.14-.79c.33-2 1.3-2.87 2.86-2.87a8.06 8.06 0 0 1 1.63.18l.42-2.36c0-.17.12-.23.24-.23h.12a.17.17 0 0 1 .17.18h0zm-2.66 2.65c-1.27 0-2 .81-2.26 2.4l-.13.79a4.79 4.79 0 0 0-.08.88c0 1 .42 1.56 1.47 1.56a10 10 0 0 0 1.69-.15l.94-5.33a9.69 9.69 0 0 0-1.63-.15zm11.05 2.4l-.13.79c-.3 1.8-1.09 2.91-2.82 2.91a10.92 10.92 0 0 1-2-.23c-.11 0-.14-.07-.14-.13a.28.28 0 0 1 0-.09l1.46-8.3a.27.27 0 0 1 .24-.23h.12a.17.17 0 0 1 .17.18h0l-.41 2.34a8.42 8.42 0 0 1 1.66-.16 1.75 1.75 0 0 1 1.94 2 5.54 5.54 0 0 1-.09.92zm-1.94-2.4a9.59 9.59 0 0 0-1.68.18l-.94 5.3a10.67 10.67 0 0 0 1.63.15c1.39 0 2-.86 2.27-2.44l.13-.79a5.06 5.06 0 0 0 .09-.89c0-1.02-.45-1.51-1.5-1.51zm8.64-.11l-3.17 6.81c-.56 1.23-1 1.67-2.23 1.67a4.76 4.76 0 0 1-.73-.07c-.14 0-.22-.05-.22-.15h0v-.13a.21.21 0 0 1 .23-.17h.06c.18 0 .57.07.76.07.86 0 1.2-.3 1.64-1.31l.25-.56h-.14c-.37 0-.54-.1-.61-.67l-.66-5.48h0a.25.25 0 0 1 .25-.25h.08a.17.17 0 0 1 .14.16l.65 5.51c0 .26.05.27.23.27h.27l2.66-5.79a.31.31 0 0 1 .26-.16h.13a.13.13 0 0 1 .14.14.5.5 0 0 1 .01.11zm5.65-2.54L141.45 50a.27.27 0 0 1-.24.23h-.12a.17.17 0 0 1-.17-.18h0l1.5-8.45a.27.27 0 0 1 .24-.23h.12a.17.17 0 0 1 .17.18zm5.89 4.46l-.71 4a.28.28 0 0 1-.26.23h-.09a.18.18 0 0 1-.18-.19h0l.71-4a2.59 2.59 0 0 0 0-.54 1.17 1.17 0 0 0-1.34-1.28 5.1 5.1 0 0 0-2 .49l-.88 5.29a.29.29 0 0 1-.26.23h-.08a.19.19 0 0 1-.19-.19h0l1.06-6a.28.28 0 0 1 .26-.24h.1a.17.17 0 0 1 .17.18V44v.19a4.79 4.79 0 0 1 1.93-.49 1.64 1.64 0 0 1 1.87 1.73 4.08 4.08 0 0 1-.11.57zm5.99-4.52v.08c0 .11-.09.16-.27.16H154c-.57 0-.87.15-1 .94l-.19 1.12h1.43c.12 0 .19.06.19.16h0v.11a.26.26 0 0 1-.27.19h-1.46l-1.14 6.47c-.21 1.15-.76 1.41-1.61 1.41a3.84 3.84 0 0 1-.61 0c-.15 0-.22-.08-.22-.15a.43.43 0 0 1 0 0v-.08c0-.11.09-.16.27-.16h.6c.57 0 .87-.2 1-.94l1.14-6.47H151c-.12 0-.19-.06-.19-.15h0v-.11a.25.25 0 0 1 .27-.19h1.18l.2-1.12a1.43 1.43 0 0 1 1.6-1.41 2.68 2.68 0 0 1 .61 0c.15 0 .22.07.22.14s-.01-.02-.01 0zm5.35 5.11l-.15.84c-.31 1.83-1.25 2.86-3 2.86a1.88 1.88 0 0 1-2-2.1 5.24 5.24 0 0 1 .07-.76l.15-.84c.32-1.88 1.29-2.87 3-2.87a1.85 1.85 0 0 1 2 2.07 4.56 4.56 0 0 1-.07.8zm-2-2.4c-1.36 0-2.12 1-2.37 2.4l-.15.84a5 5 0 0 0-.08.82c0 1 .45 1.57 1.6 1.57 1.38 0 2.12-1 2.37-2.39l.14-.84a5.24 5.24 0 0 0 .09-.83c-.04-1.01-.5-1.57-1.64-1.57z" fill="#fff"/><path d="M167.26 50.26h-.12c-.1 0-.14-.08-.15-.16l-.44-3.25h-3.45l-1.56 3.25a.32.32 0 0 1-.23.16h-.18a.14.14 0 0 1-.15-.15.48.48 0 0 1 0-.15l3.89-8.12a.93.93 0 0 1 .89-.59.61.61 0 0 1 .66.57l1 8.14h0c.07.19 0 .3-.16.3zM166 42a.27.27 0 0 0-.23-.24.37.37 0 0 0-.33.23l-2.08 4.35h3.17zm6.55 1.9v.1c0 .15-.12.18-.31.18a3.32 3.32 0 0 0-1.73.56l-.94 5.26a.31.31 0 0 1-.27.23h-.07A.18.18 0 0 1 169 50h0l1.05-6a.3.3 0 0 1 .27-.24h.1a.15.15 0 0 1 .17.17V44v.25a3 3 0 0 1 1.7-.55c.18 0 .27 0 .27.14zm5.68 2.67l-.06.33a.32.32 0 0 1-.29.23h-4v.25c0 .29-.07.55-.07.78 0 1.29.69 1.65 1.8 1.65a10.06 10.06 0 0 0 1.82-.19h.11c.08 0 .15 0 .15.09a.15.15 0 0 1 0 .09v.08c0 .17-.1.18-.28.22a10 10 0 0 1-1.83.2 2 2 0 0 1-2.24-2.11 4.51 4.51 0 0 1 .06-.8l.13-.79c.31-1.89 1.33-2.87 2.92-2.87a1.82 1.82 0 0 1 2 2 4.59 4.59 0 0 1-.22.84zm-2-2.38c-1.33 0-2 .92-2.31 2.4v.06h3.75v-.08a5.48 5.48 0 0 0 .09-.84 1.34 1.34 0 0 0-1.5-1.54zm8.41 1.81l-.71 4a.28.28 0 0 1-.26.23h-.09a.18.18 0 0 1-.18-.19h0l.71-4a2.59 2.59 0 0 0 0-.54c0-.95-.58-1.28-1.35-1.28a5.19 5.19 0 0 0-2 .49l-.87 5.29a.31.31 0 0 1-.27.23h-.07a.18.18 0 0 1-.19-.19h0l1.06-6a.28.28 0 0 1 .26-.24h.1a.16.16 0 0 1 .16.18V44v.19a4.75 4.75 0 0 1 1.93-.49 1.64 1.64 0 0 1 1.86 1.71 4.08 4.08 0 0 1-.09.59zm6.61-1.82l-1 5.8a.28.28 0 0 1-.27.24h-.09a.17.17 0 0 1-.18-.19v-.05l.07-.4a4.58 4.58 0 0 1-2.06.71 1.6 1.6 0 0 1-1.72-1.73 4 4 0 0 1 0-.56l.24-1.36c.37-2.07 1.21-2.91 2.87-2.91a10 10 0 0 1 2 .23c.11 0 .16.06.16.14s-.02.04-.02.08zm-2.2 0c-1.34 0-2 .87-2.25 2.44l-.24 1.38a3.07 3.07 0 0 0-.06.57c0 1 .63 1.26 1.33 1.26a4.51 4.51 0 0 0 2-.74l.82-4.74a10.55 10.55 0 0 0-1.6-.16z" fill="#0566a4"/><path d="M37.67 12.75l-4.2 24a1.68 1.68 0 0 1-1.54 1.3h-4.34a1.29 1.29 0 0 1-1.3-1l-5.18-11.67c-.1-.24-.21-.28-.31-.28s-.18.07-.21.32l-2.1 11.94a.9.9 0 0 1-.84.7H12.4a.58.58 0 0 1-.6-.6v-.1l4.2-24a1.67 1.67 0 0 1 1.54-1.29h4.27c.67 0 1 .42 1.23 1l5.32 12.08c.1.24.14.31.24.31s.21 0 .25-.31L31 12.75a.88.88 0 0 1 .84-.7h5.25a.53.53 0 0 1 .56.56zm18.76 14.14L56.08 29a.91.91 0 0 1-.88.77H44.32a6.68 6.68 0 0 0-.11 1.08c0 1.75 1.12 2 2.87 2l6.72-.28h.14c.32 0 .53.14.53.45v.15l-.56 3.15a1.05 1.05 0 0 1-.88 1 24.83 24.83 0 0 1-7.66 1.08c-3.89 0-7.74-2.41-7.74-7.39a11.29 11.29 0 0 1 .14-1.78l.39-2.31c1.15-6.93 5.14-9.52 11-9.52 5.07 0 7.45 3.36 7.45 7.52a13.5 13.5 0 0 1-.18 1.97zm-8.26-4.31c-2 0-2.8 1.47-3.22 3.47h5.18a7.3 7.3 0 0 0 .17-1.4 1.85 1.85 0 0 0-2.13-2.07zm24.29-4.48l-.74 4.1a.85.85 0 0 1-.73.7h-.49a9.5 9.5 0 0 0-4.17.8L64 37.29a.93.93 0 0 1-.84.77h-5.3a.66.66 0 0 1-.63-.67v-.1l3.33-18.91a.9.9 0 0 1 .84-.7h4.9a.55.55 0 0 1 .56.6v.1l-.11.84a6.34 6.34 0 0 1 4.73-1.82h.38a.58.58 0 0 1 .6.6zm20.89-6.4L89 36.38c-.11.66-.28.87-1.4 1.12a41.79 41.79 0 0 1-8 .87c-4.79 0-7.77-3-7.77-7.35a11.6 11.6 0 0 1 .17-1.79l.5-2.73c1.15-6.47 4.33-9.13 10.71-9.13a23.49 23.49 0 0 1 2.45.24l1-5.91a.85.85 0 0 1 .8-.7h5.22a.62.62 0 0 1 .66.59zM82.29 22.93c-2 0-2.8 1.54-3.15 3.57l-.49 2.73a6.85 6.85 0 0 0-.14 1.37c0 1.36.53 2.24 2 2.24a15.63 15.63 0 0 0 2.49-.17l1.68-9.6c-.74-.07-1.55-.14-2.39-.14z" fill="#fff"/><path d="M112.92 38.06h-6a.64.64 0 0 1-.6-.67l-.1-4.87H100l-1.86 4.87a1 1 0 0 1-.8.67h-6.2a.44.44 0 0 1-.49-.46.94.94 0 0 1 .07-.28l8.51-21.42c1.37-3.47 4.13-4.17 7.46-4.17s5.84.7 6 4.17l.91 21.42h0a.68.68 0 0 1-.68.74zm-6.83-20c0-.31 0-.49-.31-.49s-.35.18-.46.49L102 26.92h4.2zm24.64.04l-.73 4.1a.86.86 0 0 1-.74.7h-.49a9.49 9.49 0 0 0-4.16.8l-2.38 13.59a.93.93 0 0 1-.84.77h-5.26a.67.67 0 0 1-.63-.67v-.1l3.33-18.91a.9.9 0 0 1 .84-.7h4.9a.55.55 0 0 1 .56.6v.1l-.1.84a6.32 6.32 0 0 1 4.72-1.82h.39a.57.57 0 0 1 .59.6zM149 26.89l-.35 2.1a.91.91 0 0 1-.88.77h-10.92a7.86 7.86 0 0 0-.1 1.08c0 1.75 1.12 2 2.87 2l6.72-.28h.14c.32 0 .53.14.53.45v.15l-.56 3.15a1.05 1.05 0 0 1-.88 1 24.83 24.83 0 0 1-7.66 1.08c-3.89 0-7.74-2.41-7.74-7.39a10.21 10.21 0 0 1 .14-1.78l.38-2.31c1.16-6.93 5.15-9.52 11-9.52 5.07 0 7.45 3.36 7.45 7.52a13.5 13.5 0 0 1-.14 1.98zm-8.26-4.31c-2 0-2.8 1.47-3.22 3.47h5.18a7.3 7.3 0 0 0 .17-1.4 1.85 1.85 0 0 0-2.16-2.07zM170 26.36l-2 10.93a1 1 0 0 1-.87.77h-5.25a.6.6 0 0 1-.6-.63v-.14l2-11.17a11 11 0 0 0 .24-1.79c0-1.08-.45-1.36-1.64-1.36a7.15 7.15 0 0 0-3 .77l-2.38 13.55a.92.92 0 0 1-.94.77h-5c-.42 0-.8-.21-.8-.63v-.14l3.36-18.91a.86.86 0 0 1 .8-.7h4.8a.57.57 0 0 1 .59.6v.1l-.17.91a10.13 10.13 0 0 1 5.6-1.92c4 0 5.5 2.69 5.5 6.19a16.3 16.3 0 0 1-.24 2.8zm22-7l-3.15 18a.81.81 0 0 1-.74.7h-4.38a.59.59 0 0 1-.63-.6v-.1l.14-1.09a8.31 8.31 0 0 1-5.39 2.1c-3.39 0-6.09-2.45-6.09-6.83a13.69 13.69 0 0 1 .21-2l.6-3.53c1.12-6.69 5.35-8.61 10.71-8.61a40.88 40.88 0 0 1 7.67.87c.66.14 1.08.25 1.08.84a1 1 0 0 1-.03.25zm-9.49 3.57c-2 0-2.84.77-3.33 3.57l-.66 3.75a4 4 0 0 0-.07.88c0 1.25.63 1.61 1.61 1.61a6.64 6.64 0 0 0 3-1l1.54-8.72a19.29 19.29 0 0 0-2.07-.09z" fill="#0566a3"/></svg>